<?xml version="1.0" encoding="utf-8"?>
<!-- Svg Vector Icons : http://www.onlinewebfonts.com/icon -->
<!DOCTYPE svg PUBLIC "-//W3C//DTD SVG 1.1//EN" "http://www.w3.org/Graphics/SVG/1.1/DTD/svg11.dtd">
<svg version="1.1" xmlns="http://www.w3.org/2000/svg" xmlns:xlink="http://www.w3.org/1999/xlink" x="0px" y="0px" viewBox="0 0 1000 1000" enable-background="new 0 0 1000 1000" xml:space="preserve">
<metadata> Svg Vector Icons : http://www.onlinewebfonts.com/icon </metadata>
<g><g><path d="M500,10C229.4,10,10,229.4,10,500s219.4,490,490,490s490-219.4,490-490S770.6,10,500,10z M686.5,632.4l-23.1-23.1l91.9-91.9l-238.5-0.5L516.4,754l92.9-92.9l23.1,23.1L498.9,817.8L367.6,686.5l23.1-23.1l91.9,91.9l0.5-238.5L246,516.4l92.9,92.9l-23.1,23.1L182.2,498.9l131.3-131.3l23.1,23.1l-91.9,91.9l238.5,0.5l0.5-237.1l-92.9,92.9l-23.1-23.1l133.6-133.6l131.3,131.3l-23.1,23.1l-91.9-91.9l-0.5,238.5l237.1,0.5l-92.9-92.9l23.1-23.1l133.6,133.6L686.5,632.4z"/></g><g></g><g></g><g></g><g></g><g></g><g></g><g></g><g></g><g></g><g></g><g></g><g></g><g></g><g></g><g></g></g>
</svg>